<?xml version="1.0" standalone="no"?>
<!DOCTYPE svg PUBLIC "-//W3C//DTD SVG 20010904//EN"
 "http://www.w3.org/TR/2001/REC-SVG-20010904/DTD/svg10.dtd">
<svg version="1.0" xmlns="http://www.w3.org/2000/svg"
 width="260.000000pt" height="260.000000pt" viewBox="0 0 260.000000 260.000000"
 preserveAspectRatio="xMidYMid meet">
<metadata>
Created by potrace 1.11, written by Peter Selinger 2001-2013
</metadata>
<g transform="translate(0.000000,260.000000) scale(0.100000,-0.100000)"
fill="#000000" stroke="none">
<path d="M6 2584 c-10 -25 -7 -194 3 -194 12 0 19 22 26 89 4 41 1 61 -11 79
-15 23 -15 25 0 19 10 -4 16 -1 16 8 0 20 -26 19 -34 -1z"/>
<path d="M1400 2592 c0 -9 54 -42 69 -42 18 0 1 27 -25 39 -29 13 -44 14 -44
3z"/>
<path d="M1485 2584 c11 -9 28 -20 39 -26 18 -10 18 -9 0 16 -11 14 -28 25
-39 25 l-20 0 20 -15z"/>
<path d="M2110 2589 c0 -5 5 -7 10 -4 6 3 10 8 10 11 0 2 -4 4 -10 4 -5 0 -10
-5 -10 -11z"/>
<path d="M848 2570 c-15 -3 -37 -13 -48 -22 -24 -21 -41 -23 -34 -5 3 8 -2 14
-11 14 -18 0 -19 -9 -3 -25 16 -16 -10 -45 -35 -38 -10 2 -29 1 -41 -4 -14 -5
-28 -3 -41 6 -28 21 -36 17 -25 -11 5 -14 7 -31 4 -39 -3 -8 0 -17 6 -21 8 -5
4 -12 -10 -22 -12 -8 -19 -21 -16 -29 3 -8 0 -11 -10 -7 -8 3 -14 2 -13 -3 3
-20 -2 -32 -13 -31 -33 1 -48 -4 -48 -16 0 -7 -18 -31 -40 -52 -22 -21 -40
-45 -40 -52 0 -8 -7 -24 -15 -37 -25 -38 -35 -169 -20 -266 4 -26 3 -31 -5
-20 -7 10 -8 -18 -5 -94 3 -60 7 -111 9 -113 2 -2 6 23 10 56 8 66 26 93 26
38 0 -38 -14 -121 -26 -151 -6 -16 -4 -18 10 -13 14 6 16 3 10 -15 -6 -20 -5
-21 10 -9 14 12 16 11 16 -11 0 -14 -9 -35 -20 -48 -23 -27 -43 -93 -36 -118
3 -10 13 -69 21 -131 8 -63 22 -128 31 -145 10 -17 26 -49 36 -71 34 -69 35
-70 62 -67 24 3 32 -8 27 -40 -1 -8 58 -58 69 -58 14 0 16 -53 3 -79 -15 -31
-2 -65 45 -113 25 -27 31 -38 20 -38 -29 0 -78 51 -110 114 -17 33 -56 99 -87
146 -31 47 -62 98 -69 114 -22 52 -24 19 -3 -42 12 -33 19 -66 16 -75 -4 -8
-2 -18 4 -22 6 -3 11 -13 11 -22 0 -13 25 -50 64 -93 7 -8 16 -28 20 -44 6
-25 1 -34 -43 -77 -34 -33 -54 -61 -60 -86 -5 -21 -12 -45 -15 -54 -5 -10 -2
-16 9 -16 8 0 15 9 15 20 0 25 84 145 88 125 2 -8 -13 -50 -33 -93 -19 -43
-35 -83 -35 -90 0 -15 -32 -45 -48 -45 -11 0 -27 29 -60 110 -10 22 -10 21 -5
-10 10 -58 30 -96 73 -136 23 -22 38 -44 35 -52 -7 -19 23 -68 51 -83 13 -7
37 -12 55 -11 28 1 30 -1 16 -16 -23 -27 -30 -55 -12 -48 8 3 15 1 15 -4 0 -6
-4 -10 -10 -10 -5 0 -10 -4 -10 -10 0 -34 46 21 69 82 9 23 8 26 -7 21 -11 -3
-7 4 11 21 15 15 27 31 27 37 0 6 5 7 10 4 6 -4 8 -10 6 -14 -3 -4 0 -13 5
-21 8 -11 9 -3 4 25 -5 31 -4 37 5 29 17 -17 17 -84 0 -95 -8 -5 -12 -9 -7 -9
10 0 -23 -51 -43 -67 -11 -9 -12 -12 -2 -13 9 0 7 -9 -7 -29 -12 -16 -21 -33
-21 -38 0 -13 48 48 82 107 l32 54 8 -29 c5 -21 3 -34 -7 -45 -8 -9 -15 -23
-15 -30 0 -7 13 7 29 31 28 40 29 45 14 61 -14 15 -14 25 -3 75 23 110 29 148
31 218 1 65 2 67 10 30 13 -62 13 -285 0 -334 -7 -23 -10 -46 -7 -49 4 -3 20
4 36 17 44 32 36 13 -20 -48 -27 -30 -47 -57 -44 -60 2 -3 40 33 84 79 43 47
81 82 84 80 2 -3 -42 -58 -100 -122 -57 -64 -104 -119 -104 -122 0 -13 69 -5
81 10 22 27 97 74 117 74 10 0 22 3 26 7 4 5 11 8 14 8 16 1 81 41 132 81 128
101 150 115 150 96 0 -25 -50 -126 -103 -209 l-47 -73 610 0 c336 0 610 3 610
6 0 4 -8 14 -17 23 -10 9 -24 27 -31 40 -11 19 -11 25 -1 32 7 4 16 6 20 3 4
-2 5 5 2 16 -3 11 -9 23 -14 26 -5 3 -9 12 -9 19 0 11 6 12 25 5 27 -10 31 -7
37 35 2 13 -4 21 -17 23 -19 4 -35 21 -36 39 -1 5 -5 16 -10 25 -17 31 5 19
29 -16 19 -27 27 -32 50 -28 21 4 23 6 8 11 -9 4 -16 10 -14 14 5 12 -66 116
-82 121 -11 3 -10 4 3 5 15 1 16 4 7 22 -6 11 -11 39 -11 62 0 23 -5 60 -11
82 -11 42 -16 64 -24 104 -3 14 -7 28 -10 33 -3 5 -7 20 -10 34 -3 18 -1 23 8
18 6 -4 2 8 -10 27 -11 19 -27 46 -34 59 -7 14 -17 32 -22 40 -6 8 -11 24 -12
37 -2 13 -12 35 -23 50 -13 15 -19 34 -16 45 4 10 1 18 -5 18 -6 0 -8 5 -5 10
3 6 1 10 -6 10 -7 0 -9 10 -7 25 3 13 1 22 -3 19 -5 -3 -9 8 -9 25 0 16 -4 33
-10 36 -5 3 -10 14 -10 24 0 9 -5 22 -12 29 -6 6 -12 20 -13 29 -7 75 -63 304
-90 373 -8 19 -17 55 -21 80 -3 24 -9 51 -13 60 -5 8 -29 78 -55 155 -49 145
-97 253 -149 340 -49 81 -79 117 -87 105 -4 -6 -17 5 -33 29 -14 22 -43 52
-64 68 -21 15 -40 31 -43 34 -3 3 -29 18 -59 33 -77 38 -97 29 -36 -16 28 -20
61 -51 74 -70 22 -30 22 -31 3 -14 -12 11 -22 15 -22 11 0 -5 -12 3 -27 17
-42 39 -133 90 -133 74 0 -14 61 -81 120 -132 19 -17 44 -41 55 -54 l20 -23
-22 12 c-12 6 -26 17 -30 24 -12 18 -131 119 -178 150 -45 30 -60 34 -51 12 7
-20 0 -19 -35 6 -17 12 -39 19 -49 16 -11 -3 -20 -1 -20 4 0 10 -40 33 -47 26
-2 -3 1 -16 7 -29 11 -20 9 -19 -19 7 -25 23 -44 30 -89 35 -31 3 -69 3 -84 0z
m712 -285 c14 -8 21 -14 15 -14 -5 0 -21 6 -35 14 -14 8 -20 14 -15 14 6 0 21
-6 35 -14z m-1104 -411 c-4 -9 -9 -15 -11 -12 -3 3 -3 13 1 22 4 9 9 15 11 12
3 -3 3 -13 -1 -22z m1239 -100 c19 -49 28 -80 20 -70 -21 27 -77 180 -61 165
4 -4 22 -47 41 -95z m-151 41 c-10 31 44 -43 73 -100 20 -39 22 -47 8 -35 -17
14 -17 13 -6 -8 7 -13 11 -25 9 -28 -7 -7 -48 27 -48 40 0 7 -16 43 -35 82
-40 79 -43 89 -15 54 17 -20 19 -21 14 -5z m176 15 c0 -5 -2 -10 -4 -10 -3 0
-8 5 -11 10 -3 6 -1 10 4 10 6 0 11 -4 11 -10z m-89 -82 c16 -32 26 -58 21
-58 -9 0 -72 116 -72 133 0 16 14 -4 51 -75z m-39 -113 c8 -15 3 -13 -21 8
-18 15 -36 27 -41 27 -9 0 -70 92 -70 106 1 11 116 -112 132 -141z m-594 -52
c2 -8 -5 -13 -17 -13 -21 0 -35 13 -24 24 10 10 36 3 41 -11z m-402 -223 c-29
-64 -28 -86 4 -115 34 -31 22 -37 -15 -8 -29 23 -35 33 -30 53 9 38 57 141 63
135 3 -2 -7 -32 -22 -65z m-19 -316 c-3 -3 -12 -4 -19 -1 -8 3 -5 6 6 6 11 1
17 -2 13 -5z m20 -376 c-3 -7 -5 -2 -5 12 0 14 2 19 5 13 2 -7 2 -19 0 -25z
m1616 -8 c3 -11 1 -18 -4 -14 -5 3 -9 12 -9 20 0 20 7 17 13 -6z m-1719 -45
c-10 -16 -20 -23 -22 -16 -4 12 28 55 35 47 3 -2 -3 -17 -13 -31z m303 13 c-3
-8 -6 -5 -6 6 -1 11 2 17 5 13 3 -3 4 -12 1 -19z m-157 -42 c0 -8 -12 -28 -26
-45 -14 -17 -23 -39 -21 -48 4 -15 5 -14 6 3 0 12 8 27 16 34 13 11 15 8 15
-14 0 -14 5 -26 11 -26 7 0 4 -11 -6 -27 l-18 -28 28 25 c24 22 26 23 17 4 -8
-15 -8 -24 0 -32 9 -9 8 -18 0 -37 -7 -15 -8 -24 -2 -20 25 15 7 -16 -25 -44
-21 -18 -30 -31 -21 -31 8 0 20 8 26 18 9 14 10 13 4 -8 -3 -14 -8 -27 -10
-29 -5 -5 -54 -13 -82 -13 -26 0 -62 28 -62 49 0 16 38 33 60 25 8 -2 4 4 -10
14 -34 25 -41 36 -34 59 8 25 12 30 20 23 3 -4 0 -17 -6 -30 -11 -22 -11 -22
9 2 17 21 17 26 5 33 -22 13 -17 23 41 84 30 32 55 61 55 65 0 5 2 8 5 8 3 0
5 -6 5 -14z m1597 -18 c-3 -8 -6 -5 -6 6 -1 11 2 17 5 13 3 -3 4 -12 1 -19z
m10 -40 c-3 -8 -6 -5 -6 6 -1 11 2 17 5 13 3 -3 4 -12 1 -19z m-1492 -108 c-3
-92 -23 -118 -24 -31 0 34 4 61 10 61 6 0 7 5 4 10 -6 9 1 30 9 30 2 0 3 -32
1 -70z m-262 20 c-3 -11 -10 -20 -15 -20 -5 0 -6 -9 -3 -20 8 -24 -2 -26 -26
-4 -17 16 -17 18 14 39 18 13 33 24 34 24 0 1 -1 -8 -4 -19z m1242 -55 c75
-16 122 -68 130 -145 3 -34 1 -39 -10 -30 -8 7 -15 7 -19 1 -4 -5 2 -14 11
-20 10 -6 13 -11 7 -11 -6 0 -17 7 -24 15 -7 8 -18 14 -24 14 -27 -5 -152 68
-199 115 -8 8 -18 12 -22 8 -4 -4 -5 6 -3 23 2 21 10 31 28 36 27 7 76 4 125
-6z m595 -201 c0 -8 -5 -12 -10 -9 -6 4 -8 11 -5 16 9 14 15 11 15 -7z"/>
<path d="M610 421 c0 -5 5 -13 10 -16 6 -3 10 -2 10 4 0 5 -4 13 -10 16 -5 3
-10 2 -10 -4z"/>
<path d="M582 355 c-7 -14 -12 -29 -12 -33 1 -10 40 38 40 49 0 18 -17 8 -28
-16z"/>
<path d="M523 298 c11 -10 29 -18 41 -17 17 1 16 2 -7 9 -16 5 -34 12 -41 17
-6 4 -3 0 7 -9z"/>
<path d="M1647 2350 c15 -28 66 -100 70 -100 7 0 -27 55 -53 85 -14 17 -22 23
-17 15z"/>
<path d="M2584 2179 c-3 -6 -17 -9 -30 -6 -17 3 -25 -1 -30 -15 -4 -15 -12
-19 -30 -15 -13 2 -24 1 -24 -3 0 -4 -18 -19 -40 -34 l-40 -26 -20 20 c-19 19
-20 19 -20 1 0 -10 -11 -26 -24 -34 -23 -15 -25 -15 -40 6 -16 22 -16 22 -10
-5 5 -21 2 -28 -9 -28 -9 0 -25 -12 -37 -27 -18 -23 -24 -25 -40 -15 -14 8
-21 9 -26 0 -5 -8 -11 -6 -19 6 -12 15 -13 15 -18 -4 -3 -13 -10 -18 -21 -14
-11 4 -16 1 -16 -10 0 -13 -4 -15 -19 -7 -16 9 -17 7 -13 -14 5 -31 -11 -32
-30 -3 -10 16 -20 19 -34 14 -17 -7 -17 -9 -3 -19 8 -7 18 -19 21 -29 4 -9 20
-19 37 -23 17 -4 33 -10 36 -15 3 -4 -11 -4 -30 0 -32 7 -34 6 -24 -11 5 -10
16 -19 24 -19 19 0 19 -8 1 -25 -12 -12 -16 -12 -29 3 -9 10 -26 18 -39 19
-12 1 -24 7 -26 13 -2 5 -8 10 -14 10 -6 0 -3 -9 7 -20 10 -11 13 -20 7 -20
-6 0 -9 -7 -6 -15 4 -8 12 -15 19 -15 19 0 40 -30 37 -52 -3 -17 9 -41 57
-118 10 -15 11 -21 4 -17 -8 5 -13 3 -13 -5 0 -7 -9 6 -20 30 -10 23 -21 42
-24 42 -7 0 2 -24 26 -75 58 -123 80 -143 153 -146 39 -2 38 -2 -10 -8 -27 -3
-51 -3 -53 2 -2 4 -8 7 -13 7 -5 0 -1 -16 9 -35 10 -21 22 -33 31 -30 9 4 11
0 7 -10 -3 -8 -2 -15 2 -15 4 0 13 -9 20 -21 12 -19 11 -19 -7 -9 -17 9 -20 8
-15 -5 4 -8 9 -15 13 -15 3 0 7 -10 7 -22 3 -41 13 -90 20 -97 4 -3 4 3 0 14
-7 19 -6 19 11 3 16 -17 16 -18 -1 -31 -20 -15 -14 -39 7 -31 8 3 24 0 38 -5
22 -9 21 -10 -13 -10 -21 -1 -38 -6 -38 -12 0 -6 6 -9 13 -6 7 3 26 -1 42 -8
20 -9 24 -14 13 -14 -10 -1 -18 -6 -18 -12 0 -6 -9 -9 -20 -6 -22 6 -37 -8
-20 -18 5 -3 10 -17 10 -31 0 -31 25 -58 46 -50 8 3 12 10 9 16 -3 6 1 7 9 4
9 -3 14 -10 11 -14 -6 -9 23 -35 31 -28 3 3 -2 22 -10 42 -30 71 13 93 44 24
33 -73 18 -154 -18 -100 -8 12 -21 22 -28 22 -16 0 -19 -16 -4 -25 6 -4 3 -15
-7 -30 -10 -12 -21 -21 -24 -19 -4 2 -9 -3 -13 -11 -4 -11 2 -15 19 -15 19 0
25 5 25 21 0 29 24 19 28 -12 2 -13 12 -31 22 -39 11 -8 21 -30 22 -50 3 -30
0 -35 -19 -38 -18 -3 -23 2 -23 17 0 12 -5 21 -11 21 -7 0 -8 -7 -4 -17 4 -10
7 -26 7 -35 0 -11 9 -20 24 -24 13 -3 24 -10 24 -15 0 -5 15 -12 33 -17 17 -5
31 -14 29 -21 -1 -6 2 -20 8 -31 15 -29 2 -51 -26 -44 -23 6 -24 5 -14 -20 5
-14 7 -26 4 -26 -4 0 -2 -6 4 -13 7 -8 7 -18 2 -27 -5 -9 -5 -19 1 -26 11 -13
-7 -31 -18 -20 -4 3 0 6 7 6 9 0 8 6 -5 20 -10 11 -15 26 -11 36 5 12 2 15
-11 10 -17 -6 -17 -5 0 8 16 13 16 14 -8 20 -14 4 -25 11 -25 16 0 6 -5 10
-10 10 -7 0 -5 -11 3 -28 7 -15 13 -46 12 -69 0 -24 4 -43 10 -43 5 0 3 -5 -5
-10 -12 -7 -10 -11 10 -18 14 -5 30 -7 35 -4 6 3 4 -1 -3 -10 -11 -14 -7 -15
35 -12 27 1 37 0 23 -3 -14 -2 -30 -9 -37 -15 -7 -5 -18 -6 -24 -2 -7 4 -9 3
-5 -4 3 -6 20 -13 36 -17 17 -4 30 -10 30 -15 0 -12 -45 -21 -67 -14 -17 6
-17 6 1 -8 14 -11 16 -17 6 -23 -15 -9 5 -25 34 -25 18 0 80 -25 128 -51 10
-5 20 -9 23 -9 2 0 4 90 4 200 l0 200 -24 0 c-13 0 -35 11 -49 25 -14 14 -22
25 -19 25 3 0 1 6 -6 13 -8 10 -7 17 1 25 9 9 7 16 -9 27 -26 18 -37 62 -24
96 9 23 10 22 31 -26 14 -30 24 -44 27 -35 14 46 14 46 29 26 16 -23 19 -82 4
-91 -5 -3 -10 -17 -10 -30 0 -18 4 -23 15 -19 8 4 15 15 15 25 0 10 5 19 11
19 7 0 9 11 5 33 -16 75 -18 107 -7 107 12 0 15 29 5 54 -11 29 -23 16 -17
-19 5 -28 2 -35 -11 -35 -22 0 -32 28 -18 50 6 10 8 28 6 41 -5 21 -4 22 8 9
38 -43 38 -43 38 635 0 360 -2 655 -4 655 -3 0 -8 -5 -12 -11z m-149 -229 c3
-5 1 -10 -4 -10 -6 0 -11 5 -11 10 0 6 2 10 4 10 3 0 8 -4 11 -10z m42 -80 c3
-11 10 -20 15 -20 5 0 16 -17 24 -37 9 -21 23 -52 31 -70 18 -39 14 -77 -9
-81 -21 -4 -80 110 -76 147 2 15 -3 31 -11 37 -16 12 -8 44 10 44 6 0 13 -9
16 -20z m-103 -15 c3 -9 -1 -18 -10 -22 -19 -7 -28 2 -21 22 8 19 23 19 31 0z
m-227 -111 c57 -60 72 -92 23 -51 -16 14 -33 27 -38 29 -12 5 -55 78 -46 78 4
0 32 -25 61 -56z m-80 4 c-3 -8 -6 -5 -6 6 -1 11 2 17 5 13 3 -3 4 -12 1 -19z
m343 2 c0 -5 -2 -10 -4 -10 -3 0 -8 5 -11 10 -3 6 -1 10 4 10 6 0 11 -4 11
-10z m41 -83 c6 -13 7 -32 1 -46 -8 -22 -9 -22 -25 -6 -9 9 -17 27 -17 39 0
41 25 49 41 13z m-111 -56 c5 -11 10 -36 10 -55 l0 -35 -25 23 c-14 13 -25 34
-25 48 0 41 22 51 40 19z m-212 -28 c1 -25 0 -26 -12 -11 -7 10 -17 14 -22 10
-4 -4 -2 1 5 11 19 24 26 21 29 -10z m120 -48 c-3 -3 -9 2 -12 12 -6 14 -5 15
5 6 7 -7 10 -15 7 -18z m127 -34 c-6 -5 -21 -12 -35 -16 -24 -7 -24 -7 -5 9
21 16 56 23 40 7z m-102 -38 c-7 -2 -19 -2 -25 0 -7 3 -2 5 12 5 14 0 19 -2
13 -5z m146 -94 c7 -20 7 -37 2 -48 -8 -13 -11 -12 -20 12 -13 35 -14 67 -2
67 5 0 14 -14 20 -31z m-152 -55 c-3 -3 -12 -4 -19 -1 -8 3 -5 6 6 6 11 1 17
-2 13 -5z m208 -94 c4 -6 9 -41 11 -78 3 -37 6 -76 7 -87 1 -12 -4 -20 -13
-20 -9 0 -16 11 -18 30 -1 17 -7 55 -13 87 -11 54 -8 78 11 78 5 0 12 -5 15
-10z m102 -12 c-3 -8 -6 -5 -6 6 -1 11 2 17 5 13 3 -3 4 -12 1 -19z m-303
-174 c3 -8 2 -12 -4 -9 -6 3 -10 10 -10 16 0 14 7 11 14 -7z"/>
<path d="M2146 1273 c-6 -14 -5 -15 5 -6 7 7 10 15 7 18 -3 3 -9 -2 -12 -12z"/>
<path d="M2160 1241 c0 -6 4 -13 10 -16 6 -3 7 1 4 9 -7 18 -14 21 -14 7z"/>
<path d="M2273 973 c-10 -3 -10 -7 -1 -17 9 -9 16 -10 24 -2 20 18 5 31 -23
19z"/>
<path d="M2275 911 c-6 -11 9 -23 19 -14 9 9 7 23 -3 23 -6 0 -12 -4 -16 -9z"/>
<path d="M2298 833 c-9 -2 -16 -13 -15 -23 1 -15 7 -19 25 -15 14 2 27 7 30
10 10 10 -22 32 -40 28z"/>
<path d="M2237 810 c3 -11 9 -22 13 -25 5 -3 6 4 3 15 -3 11 -9 22 -13 25 -5
3 -6 -4 -3 -15z"/>
<path d="M2294 774 c-14 -6 -6 -44 8 -44 5 0 6 5 3 10 -3 6 -1 10 4 10 6 0 11
7 11 15 0 15 -6 17 -26 9z"/>
<path d="M501 739 c-14 -42 -7 -49 9 -9 7 17 10 33 8 36 -3 3 -11 -9 -17 -27z"/>
<path d="M2300 680 c0 -5 5 -10 11 -10 5 0 7 5 4 10 -3 6 -8 10 -11 10 -2 0
-4 -4 -4 -10z"/>
<path d="M2390 653 c0 -5 5 -15 10 -23 8 -12 10 -11 10 8 0 12 -4 22 -10 22
-5 0 -10 -3 -10 -7z"/>
<path d="M2290 642 c0 -14 11 -21 26 -15 21 8 17 23 -6 23 -11 0 -20 -4 -20
-8z"/>
<path d="M2307 613 c-16 -15 -6 -33 18 -33 18 0 25 5 25 20 0 20 -28 28 -43
13z"/>
<path d="M35 559 c-12 -19 5 -23 22 -6 16 16 16 17 1 17 -9 0 -20 -5 -23 -11z"/>
<path d="M0 394 c0 -14 4 -23 10 -19 13 8 13 45 0 45 -5 0 -10 -12 -10 -26z"/>
<path d="M196 334 c-9 -23 -8 -24 12 -24 19 0 42 18 42 32 0 15 -48 8 -54 -8z"/>
<path d="M526 231 c-4 -7 -5 -15 -2 -18 9 -9 19 4 14 18 -4 11 -6 11 -12 0z"/>
<path d="M2485 163 c-2 -7 -12 -10 -22 -7 -12 4 -10 -1 7 -15 21 -17 22 -21 7
-21 -10 0 -15 -5 -12 -10 3 -6 -1 -13 -9 -16 -9 -3 -14 -10 -11 -14 3 -5 -9
-5 -26 0 -23 7 -37 5 -53 -5 -13 -8 -26 -13 -29 -10 -4 3 -4 2 -1 -2 3 -5 20
-14 37 -21 30 -11 30 -12 5 -9 -15 2 -25 0 -22 -4 3 -5 -1 -9 -8 -10 -7 0 -4
-4 7 -8 11 -5 71 -9 133 -10 l112 -1 0 84 0 84 -55 4 c-37 2 -56 -1 -60 -9z"/>
<path d="M2368 153 c7 -3 16 -2 19 1 4 3 -2 6 -13 5 -11 0 -14 -3 -6 -6z"/>
<path d="M560 119 c0 -5 5 -7 10 -4 6 3 10 8 10 11 0 2 -4 4 -10 4 -5 0 -10
-5 -10 -11z"/>
<path d="M56 81 c-11 -23 -16 -44 -13 -48 8 -7 39 65 35 79 -2 6 -12 -8 -22
-31z"/>
<path d="M2348 83 c7 -3 16 -2 19 1 4 3 -2 6 -13 5 -11 0 -14 -3 -6 -6z"/>
<path d="M250 30 c-6 -12 -9 -24 -7 -27 3 -2 11 5 17 17 6 12 9 24 7 27 -3 2
-11 -5 -17 -17z"/>
<path d="M600 15 c-7 -8 -8 -15 -2 -15 5 0 15 7 22 15 7 8 8 15 2 15 -5 0 -15
-7 -22 -15z"/>
</g>
</svg>
